<svg xmlns="http://www.w3.org/2000/svg" width="1920" height="1080" viewBox="0 0 1920 1080">
  <rect width="1920" height="1080" fill="none"/>
  <g fill="none" stroke="#19D3C5" opacity="0.13">
    <path d="M0 164 H1920 M0 364 H1920 M0 564 H1920 M0 764 H1920 M0 964 H1920" stroke-width="2"/>
    <path d="M164 0 V1080 M364 0 V1080 M564 0 V1080 M764 0 V1080 M964 0 V1080 M1164 0 V1080 M1364 0 V1080 M1564 0 V1080 M1764 0 V1080" stroke-width="2"/>
  </g>
  <g fill="none" stroke="#19D3C5" stroke-linecap="butt" opacity="0.24">
    <circle cx="960" cy="540" r="150" stroke-width="8"/>
    <circle cx="960" cy="540" r="280" stroke-width="7"/>
    <circle cx="960" cy="540" r="430" stroke-width="6"/>
    <circle cx="960" cy="540" r="610" stroke-width="5"/>
    <path d="M960 540 L1392 210" stroke-width="9" opacity="0.45"/>
  </g>
  <g fill="#19D3C5" opacity="0.16">
    <path d="M268 721 C188 673 143 606 132 528 C202 548 260 595 304 664 C339 592 392 543 462 518 C452 598 410 667 342 721 Z"/>
    <path d="M1516 332 C1448 291 1410 236 1401 169 C1461 186 1510 226 1547 284 C1577 222 1622 180 1682 159 C1674 227 1638 286 1580 332 Z"/>
    <path d="M1046 844 C995 814 966 772 959 722 C1004 735 1041 765 1069 809 C1091 762 1126 731 1171 715 C1165 766 1138 810 1094 844 Z"/>
  </g>
</svg>