<svg xmlns="http://www.w3.org/2000/svg" width="512" height="512" viewBox="0 0 512 512" role="img" aria-label="고래지갑추적기 관찰 마스코트">
  <rect width="512" height="512" fill="none"/>
  <g fill="none" stroke="#19D3C5" stroke-linecap="round" opacity="0.42">
    <circle cx="258" cy="252" r="172" stroke-width="10" stroke-dasharray="64 26"/>
    <circle cx="258" cy="252" r="122" stroke-width="8" stroke-dasharray="44 22"/>
  </g>
  <path d="M128 245 C78 214 50 171 44 120 C88 134 125 164 153 209 C175 162 209 130 254 114 C247 166 220 211 176 245 Z" fill="#19D3C5"/>
  <path d="M145 258 C145 169 220 112 318 125 C407 137 465 196 465 270 C465 343 402 393 314 394 C219 396 145 342 145 258 Z" fill="#19D3C5"/>
  <path d="M210 306 C247 349 328 358 404 327 C379 378 315 406 249 388 C205 376 174 350 160 310 C176 316 192 316 210 306 Z" fill="#FFFFFF" opacity="0.97"/>
  <path d="M241 327 C205 358 166 356 131 324 C169 313 203 313 241 327 Z" fill="#19D3C5" opacity="0.98"/>
  <path d="M287 310 C255 342 220 354 190 341 C223 319 246 292 261 260 C282 273 292 288 287 310 Z" fill="#070A0F" opacity="0.10"/>
  <path d="M288 302 C260 327 231 337 207 327 C233 309 252 287 265 262 C283 274 292 287 288 302 Z" fill="#19D3C5"/>
  <circle cx="348" cy="222" r="18" fill="#FFFFFF"/>
  <circle cx="348" cy="222" r="10" fill="#070A0F"/>
  <circle cx="386" cy="224" r="16" fill="#FFFFFF"/>
  <circle cx="386" cy="224" r="9" fill="#070A0F"/>
  <path d="M365 268 C377 275 391 275 402 268" fill="none" stroke="#070A0F" stroke-width="8" stroke-linecap="round"/>
  <g transform="translate(286 96)">
    <path d="M42 64 V20" stroke="#19D3C5" stroke-width="11" stroke-linecap="round"/>
    <circle cx="42" cy="14" r="13" fill="#19D3C5"/>
    <path d="M42 20 C78 18 105 34 122 64" fill="none" stroke="#19D3C5" stroke-width="9" stroke-linecap="round" opacity="0.7"/>
    <path d="M42 20 C7 18 -21 34 -38 64" fill="none" stroke="#19D3C5" stroke-width="9" stroke-linecap="round" opacity="0.7"/>
  </g>
  <g transform="translate(313 185)">
    <rect x="0" y="0" width="112" height="45" rx="18" fill="#070A0F" opacity="0.16"/>
    <circle cx="34" cy="24" r="21" fill="none" stroke="#070A0F" stroke-width="9"/>
    <circle cx="78" cy="24" r="21" fill="none" stroke="#070A0F" stroke-width="9"/>
    <path d="M55 24 H58" stroke="#070A0F" stroke-width="8" stroke-linecap="round"/>
  </g>
  <path d="M192 207 C247 162 336 161 401 203" fill="none" stroke="#FFFFFF" stroke-width="11" opacity="0.23" stroke-linecap="round"/>
</svg>
