<svg xmlns="http://www.w3.org/2000/svg" width="512" height="512" viewBox="0 0 512 512" role="img" aria-label="고래지갑추적기 대기 마스코트">
  <rect width="512" height="512" fill="none"/>
  <path d="M128 245 C78 214 50 171 44 120 C88 134 125 164 153 209 C175 162 209 130 254 114 C247 166 220 211 176 245 Z" fill="#118C87"/>
  <path d="M145 258 C145 169 220 112 318 125 C407 137 465 196 465 270 C465 343 402 393 314 394 C219 396 145 342 145 258 Z" fill="#118C87"/>
  <path d="M210 306 C247 349 328 358 404 327 C379 378 315 406 249 388 C205 376 174 350 160 310 C176 316 192 316 210 306 Z" fill="#FFFFFF" opacity="0.97"/>
  <path d="M241 327 C205 358 166 356 131 324 C169 313 203 313 241 327 Z" fill="#118C87" opacity="0.98"/>
  <path d="M287 310 C255 342 220 354 190 341 C223 319 246 292 261 260 C282 273 292 288 287 310 Z" fill="#070A0F" opacity="0.10"/>
  <path d="M288 302 C260 327 231 337 207 327 C233 309 252 287 265 262 C283 274 292 287 288 302 Z" fill="#118C87"/>
  <path d="M335 226 C349 239 368 238 381 225" fill="none" stroke="#070A0F" stroke-width="9" stroke-linecap="round"/>
  <path d="M368 270 H405" stroke="#070A0F" stroke-width="8" stroke-linecap="round" opacity="0.85"/>
  <g fill="#C9D4E0" font-family="Noto Sans CJK KR, Noto Sans KR, Inter, Arial, sans-serif" font-weight="800">
    <text x="357" y="128" font-size="44">Z</text>
    <text x="405" y="92" font-size="34">Z</text>
    <text x="446" y="65" font-size="25">Z</text>
  </g>
  <path d="M192 207 C247 162 336 161 401 203" fill="none" stroke="#FFFFFF" stroke-width="11" opacity="0.23" stroke-linecap="round"/>
</svg>
