<svg xmlns="http://www.w3.org/2000/svg" width="1240" height="320" viewBox="0 0 1240 320" role="img" aria-label="고래지갑추적기 워드마크">
  <rect width="1240" height="320" fill="#070A0F"/>
  <g transform="translate(64 68) scale(0.1796875)">
    
    <g transform="translate(512 548)" fill="none" stroke="#19D3C5" stroke-linecap="butt" stroke-linejoin="miter">
      <circle r="156" stroke-width="54" opacity="0.92"/>
      <circle r="292" stroke-width="52" opacity="0.48"/>
      <circle r="424" stroke-width="48" opacity="0.26"/>
      <path d="M0 0 L300 -300" stroke-width="54" opacity="0.84"/>
      <path d="M0 -424 V424" stroke-width="38" opacity="0.23"/>
      <path d="M-424 0 H424" stroke-width="38" opacity="0.23"/>
    </g>
    <g fill="#19D3C5" transform="translate(512 536)">
      <path d="M0 48 L-62 -12 C-108 -58 -196 -106 -310 -146 C-272 -72 -222 4 -142 58 L-42 126 Z"/>
      <path d="M0 48 L62 -12 C108 -58 196 -106 310 -146 C272 -72 222 4 142 58 L42 126 Z"/>
      <path d="M-42 126 L0 214 L42 126 Z"/>
      <path d="M-26 34 L0 4 L26 34 L0 76 Z" opacity="0.62"/>
    </g>
  </g>
  <text x="292" y="142" fill="#FFFFFF" font-family="Noto Sans CJK KR, Noto Sans KR, Inter, Arial, sans-serif" font-size="72" font-weight="800" letter-spacing="-2.6">고래지갑추적기</text>
  <text x="296" y="204" fill="#C9D4E0" font-family="Noto Sans CJK KR, Noto Sans KR, Inter, Arial, sans-serif" font-size="32" font-weight="600" letter-spacing="1.4">Whale Wallet Tracker</text>
  <path d="M296 238 H942" stroke="#19D3C5" stroke-width="8" opacity="0.55"/>
</svg>
